<?xml version="1.0" encoding="UTF-8"?>
<!DOCTYPE svg PUBLIC "-//W3C//DTD SVG 1.1//EN" "http://www.w3.org/Graphics/SVG/1.1/DTD/svg11.dtd">
<svg version="1.2" xmlns="http://www.w3.org/2000/svg" xmlns:xlink="http://www.w3.org/1999/xlink" x="109mm" y="30mm" width="782mm" height="476mm" viewBox="109 30 782 476">
<style type="text/css"><![CDATA[
text { font:12px Dialog; }
]]></style>
<line x1="460" y1="315" x2="460" y2="460" style="fill:none;stroke:rgb(64,64,64);stroke-linecap:square" />
<line x1="460" y1="460" x2="270" y2="460" style="fill:none;stroke:rgb(64,64,64);stroke-linecap:square" />
<polygon points="460,315 467,328 460,341 453,328" style="fill:rgb(255,255,255);stroke:none" />
<polygon points="460,315 467,328 460,341 453,328" style="fill:none;stroke:rgb(64,64,64);stroke-linecap:square" />
<polyline points="290,452 270,460 290,468" style="fill:none;stroke:rgb(64,64,64);stroke-linecap:square" />
<line x1="430" y1="315" x2="430" y2="440" style="fill:none;stroke:rgb(64,64,64);stroke-linecap:square" />
<line x1="430" y1="440" x2="270" y2="440" style="fill:none;stroke:rgb(64,64,64);stroke-linecap:square" />
<polygon points="430,315 437,328 430,341 423,328" style="fill:rgb(255,255,255);stroke:none" />
<polygon points="430,315 437,328 430,341 423,328" style="fill:none;stroke:rgb(64,64,64);stroke-linecap:square" />
<polyline points="290,432 270,440 290,448" style="fill:none;stroke:rgb(64,64,64);stroke-linecap:square" />
<line x1="230" y1="170" x2="230" y2="260" style="fill:none;stroke:rgb(64,64,64);stroke-linecap:square" />
<polygon points="230,170 237,183 230,196 223,183" style="fill:rgb(255,255,255);stroke:none" />
<polygon points="230,170 237,183 230,196 223,183" style="fill:none;stroke:rgb(64,64,64);stroke-linecap:square" />
<polyline points="222,240 230,260 238,240" style="fill:none;stroke:rgb(64,64,64);stroke-linecap:square" />
<line x1="220" y1="430" x2="220" y2="330" style="fill:none;stroke:rgb(64,64,64);stroke-linecap:square" />
<polygon points="220,330 228,350 212,350" style="fill:rgb(255,255,255);stroke:none" />
<polygon points="220,330 228,350 212,350" style="fill:none;stroke:rgb(64,64,64);stroke-linecap:square" />
<line x1="450" y1="130" x2="320" y2="130" style="fill:none;stroke:rgb(64,64,64);stroke-linecap:square" />
<polygon points="450,130 437,137 424,130 437,123" style="fill:rgb(0,0,0);stroke:none" />
<polygon points="450,130 437,137 424,130 437,123" style="fill:none;stroke:rgb(64,64,64);stroke-linecap:square" />
<line x1="460" y1="145" x2="260" y2="430" style="fill:none;stroke:rgb(64,64,64);stroke-linecap:square" />
<polygon points="460,145 457,160 445,166 447,150" style="fill:rgb(0,0,0);stroke:none" />
<polygon points="460,145 457,160 445,166 447,150" style="fill:none;stroke:rgb(64,64,64);stroke-linecap:square" />
<line x1="500" y1="145" x2="500" y2="260" style="fill:none;stroke:rgb(64,64,64);stroke-linecap:square" />
<polygon points="500,145 507,158 500,171 493,158" style="fill:rgb(0,0,0);stroke:none" />
<polygon points="500,145 507,158 500,171 493,158" style="fill:none;stroke:rgb(64,64,64);stroke-linecap:square" />
<line x1="530" y1="145" x2="620" y2="270" style="fill:none;stroke:rgb(64,64,64);stroke-linecap:square" />
<polygon points="530,145 542,151 545,166 532,159" style="fill:rgb(0,0,0);stroke:none" />
<polygon points="530,145 542,151 545,166 532,159" style="fill:none;stroke:rgb(64,64,64);stroke-linecap:square" />
<line x1="570" y1="145" x2="630" y2="210" style="fill:none;stroke:rgb(64,64,64);stroke-linecap:square" />
<line x1="630" y1="210" x2="750" y2="210" style="fill:none;stroke:rgb(64,64,64);stroke-linecap:square" />
<polygon points="570,145 583,150 587,164 573,158" style="fill:rgb(0,0,0);stroke:none" />
<polygon points="570,145 583,150 587,164 573,158" style="fill:none;stroke:rgb(64,64,64);stroke-linecap:square" />
<line x1="600" y1="120" x2="750" y2="120" style="fill:none;stroke:rgb(64,64,64);stroke-linecap:square" />
<polygon points="600,120 613,113 626,120 613,127" style="fill:rgb(0,0,0);stroke:none" />
<polygon points="600,120 613,113 626,120 613,127" style="fill:none;stroke:rgb(64,64,64);stroke-linecap:square" />
<rect x="450" y="90" width="150" height="56" style="fill:rgb(255,247,225);stroke:none" />
<rect x="450" y="90" width="150" height="56" style="fill:none;stroke:rgb(65,65,65);stroke-width:1.2;stroke-linecap:square" />
<text x="486" y="112" style="font:12px Ubuntu">ClassDiagram</text>
<line x1="450" y1="125" x2="600" y2="125" style="fill:none;stroke:rgb(65,65,65);stroke-width:1.2;stroke-linecap:square" />
<line x1="450" y1="135" x2="600" y2="135" style="fill:none;stroke:rgb(65,65,65);stroke-width:1.2;stroke-linecap:square" />
<rect x="170" y="430" width="100" height="55" style="fill:rgb(255,204,102);stroke:none" />
<rect x="170" y="430" width="100" height="55" style="fill:none;stroke:rgb(65,65,65);stroke-width:1.2;stroke-linecap:square" />
<text x="202" y="452" style="font:12px Ubuntu">Entity</text>
<line x1="170" y1="465" x2="270" y2="465" style="fill:none;stroke:rgb(65,65,65);stroke-width:1.2;stroke-linecap:square" />
<line x1="170" y1="475" x2="270" y2="475" style="fill:none;stroke:rgb(65,65,65);stroke-width:1.2;stroke-linecap:square" />
<rect x="750" y="170" width="110" height="55" style="fill:rgb(0,204,255);stroke:none" />
<rect x="750" y="170" width="110" height="55" style="fill:none;stroke:rgb(65,65,65);stroke-width:1.2;stroke-linecap:square" />
<text x="771" y="192" style="font:12px Ubuntu">Association</text>
<line x1="750" y1="205" x2="860" y2="205" style="fill:none;stroke:rgb(65,65,65);stroke-width:1.2;stroke-linecap:square" />
<line x1="750" y1="215" x2="860" y2="215" style="fill:none;stroke:rgb(65,65,65);stroke-width:1.2;stroke-linecap:square" />
<rect x="580" y="270" width="150" height="55" style="fill:rgb(0,204,255);stroke:none" />
<rect x="580" y="270" width="150" height="55" style="fill:none;stroke:rgb(65,65,65);stroke-width:1.2;stroke-linecap:square" />
<text x="604" y="292" style="font:12px Ubuntu">ClassRelationship</text>
<line x1="580" y1="305" x2="730" y2="305" style="fill:none;stroke:rgb(65,65,65);stroke-width:1.2;stroke-linecap:square" />
<line x1="580" y1="315" x2="730" y2="315" style="fill:none;stroke:rgb(65,65,65);stroke-width:1.2;stroke-linecap:square" />
<rect x="430" y="260" width="110" height="55" style="fill:rgb(0,204,255);stroke:none" />
<rect x="430" y="260" width="110" height="55" style="fill:none;stroke:rgb(65,65,65);stroke-width:1.2;stroke-linecap:square" />
<text x="449" y="282" style="font:12px Ubuntu">Dependency</text>
<line x1="430" y1="295" x2="540" y2="295" style="fill:none;stroke:rgb(65,65,65);stroke-width:1.2;stroke-linecap:square" />
<line x1="430" y1="305" x2="540" y2="305" style="fill:none;stroke:rgb(65,65,65);stroke-width:1.2;stroke-linecap:square" />
<rect x="750" y="90" width="120" height="69" style="fill:rgb(0,204,255);stroke:none" />
<rect x="750" y="90" width="120" height="69" style="fill:none;stroke:rgb(65,65,65);stroke-width:1.2;stroke-linecap:square" />
<text x="763" y="112" style="font:12px Ubuntu">MutiAssociation</text>
<line x1="750" y1="125" x2="870" y2="125" style="fill:none;stroke:rgb(65,65,65);stroke-width:1.2;stroke-linecap:square" />
<text x="758" y="140" style="font:12px Ubuntu">- attribute : void</text>
<line x1="750" y1="149" x2="870" y2="149" style="fill:none;stroke:rgb(65,65,65);stroke-width:1.2;stroke-linecap:square" />
<rect x="130" y="70" width="190" height="97" style="fill:rgb(255,247,225);stroke:none" />
<rect x="130" y="70" width="190" height="97" style="fill:none;stroke:rgb(65,65,65);stroke-width:1.2;stroke-linecap:square" />
<text x="185" y="92" style="font:12px Ubuntu">ExistingTypes</text>
<line x1="130" y1="105" x2="320" y2="105" style="fill:none;stroke:rgb(65,65,65);stroke-width:1.2;stroke-linecap:square" />
<text x="138" y="120" style="font:12px Ubuntu">- instance : ExistingTypes</text>
<line x1="130" y1="129" x2="320" y2="129" style="fill:none;stroke:rgb(65,65,65);stroke-width:1.2;stroke-linecap:square" />
<text x="138" y="144" style="font:12px Ubuntu">+ ExistingTypes ()</text>
<text x="138" y="158" style="font:12px Ubuntu">+ getInstance () : ExistingTyp...</text>
<rect x="150" y="260" width="130" height="69" style="fill:rgb(255,204,102);stroke:none" />
<rect x="150" y="260" width="130" height="69" style="fill:none;stroke:rgb(65,65,65);stroke-width:1.2;stroke-linecap:square" />
<text x="201" y="282" style="font:12px Ubuntu">Type</text>
<line x1="150" y1="295" x2="280" y2="295" style="fill:none;stroke:rgb(65,65,65);stroke-width:1.2;stroke-linecap:square" />
<text x="158" y="310" style="font:12px Ubuntu">- name : String</text>
<line x1="150" y1="319" x2="280" y2="319" style="fill:none;stroke:rgb(65,65,65);stroke-width:1.2;stroke-linecap:square" />
<text x="476" y="343" style="font:14px Ubuntu">1</text>
<text x="274" y="476" style="font:14px Ubuntu">1</text>
<text x="306" y="476" style="font:14px Ubuntu">-to</text>
<text x="415" y="322" style="font:14px Ubuntu">1</text>
<text x="275" y="432" style="font:14px Ubuntu">1</text>
<text x="302" y="430" style="font:14px Ubuntu">-from</text>
<text x="207" y="191" style="font:14px Ubuntu">1</text>
<text x="201" y="236" style="font:14px Ubuntu">0..*</text>
<text x="232" y="229" style="font:14px Ubuntu">-existingTypes</text>
<text x="437" y="122" style="font:14px Ubuntu">1</text>
<text x="325" y="122" style="font:14px Ubuntu">1</text>
<text x="335" y="148" style="font:14px Ubuntu">-existingTypes</text>
<text x="429" y="171" style="font:14px Ubuntu">1</text>
<text x="256" y="412" style="font:14px Ubuntu">1</text>
<text x="258" y="384" style="font:14px Ubuntu">-entities</text>
<text x="480" y="194" style="font:14px Ubuntu">1</text>
<text x="487" y="249" style="font:14px Ubuntu">1</text>
<text x="437" y="225" style="font:14px Ubuntu">-dependencies</text>
<text x="517" y="163" style="font:14px Ubuntu">1</text>
<text x="615" y="251" style="font:14px Ubuntu">1</text>
<text x="625" y="262" style="font:14px Ubuntu">-relationships</text>
<text x="557" y="163" style="font:14px Ubuntu">1</text>
<text x="737" y="202" style="font:14px Ubuntu">1</text>
<text x="649" y="203" style="font:14px Ubuntu">-associations</text>
<text x="605" y="112" style="font:14px Ubuntu">1</text>
<text x="737" y="112" style="font:14px Ubuntu">1</text>
<text x="631" y="138" style="font:14px Ubuntu">-multiassociations</text>
<path d="M110,31 L110,61 L203,61 Q233,61 233,31 L110,31" style="fill:rgb(255,247,225);stroke:none" />
<path d="M110,31 L110,61 L203,61 Q233,61 233,31 L110,31" style="fill:none;stroke:rgb(65,65,65);stroke-width:1.2;stroke-linecap:square" />
<text x="115" y="53" style="font:16px Ubuntu">ClassDiagram</text>
<rect x="110" y="31" width="779" height="473" style="fill:none;stroke:rgb(64,64,64);stroke-linecap:square" />
</svg>
