<?xml version="1.0" encoding="UTF-8"?>
<!DOCTYPE svg PUBLIC "-//W3C//DTD SVG 1.1//EN" "http://www.w3.org/Graphics/SVG/1.1/DTD/svg11.dtd">
<svg version="1.2" xmlns="http://www.w3.org/2000/svg" xmlns:xlink="http://www.w3.org/1999/xlink" x="29mm" y="20mm" width="1212mm" height="502mm" viewBox="29 20 1212 502">
<style type="text/css"><![CDATA[
text { font:12px Dialog; }
]]></style>
<line x1="290" y1="420" x2="190" y2="420" style="fill:none;stroke:rgb(64,64,64);stroke-linecap:square" />
<polygon points="290,420 277,427 264,420 277,413" style="fill:rgb(0,0,0);stroke:none" />
<polygon points="290,420 277,427 264,420 277,413" style="fill:none;stroke:rgb(64,64,64);stroke-linecap:square" />
<polyline points="210,412 190,420 210,428" style="fill:none;stroke:rgb(64,64,64);stroke-linecap:square" />
<line x1="350" y1="240" x2="350" y2="190" style="fill:none;stroke:rgb(64,64,64);stroke-linecap:square" />
<line x1="350" y1="190" x2="510" y2="190" style="fill:none;stroke:rgb(64,64,64);stroke-linecap:square" />
<polygon points="350,240 343,227 350,214 357,227" style="fill:rgb(255,255,255);stroke:none" />
<polygon points="350,240 343,227 350,214 357,227" style="fill:none;stroke:rgb(64,64,64);stroke-linecap:square" />
<polyline points="490,198 510,190 490,182" style="fill:none;stroke:rgb(64,64,64);stroke-linecap:square" />
<line x1="170" y1="270" x2="270" y2="270" style="fill:none;stroke:rgb(64,64,64);stroke-linecap:square" />
<polygon points="170,270 183,263 196,270 183,277" style="fill:rgb(0,0,0);stroke:none" />
<polygon points="170,270 183,263 196,270 183,277" style="fill:none;stroke:rgb(64,64,64);stroke-linecap:square" />
<polyline points="250,278 270,270 250,262" style="fill:none;stroke:rgb(64,64,64);stroke-linecap:square" />
<line x1="150" y1="380" x2="150" y2="340" style="fill:none;stroke:rgb(64,64,64);stroke-linecap:square" />
<line x1="150" y1="340" x2="300" y2="340" style="fill:none;stroke:rgb(64,64,64);stroke-linecap:square" />
<line x1="300" y1="340" x2="300" y2="295" style="fill:none;stroke:rgb(64,64,64);stroke-linecap:square" />
<polygon points="150,380 143,367 150,354 157,367" style="fill:rgb(0,0,0);stroke:none" />
<polygon points="150,380 143,367 150,354 157,367" style="fill:none;stroke:rgb(64,64,64);stroke-linecap:square" />
<polyline points="308,315 300,295 292,315" style="fill:none;stroke:rgb(64,64,64);stroke-linecap:square" />
<line x1="1100" y1="435" x2="1100" y2="480" style="fill:none;stroke:rgb(64,64,64);stroke-linecap:square" />
<line x1="1100" y1="480" x2="650" y2="480" style="fill:none;stroke:rgb(64,64,64);stroke-linecap:square" />
<line x1="650" y1="480" x2="650" y2="450" style="fill:none;stroke:rgb(64,64,64);stroke-linecap:square" />
<polygon points="1100,435 1107,448 1100,461 1093,448" style="fill:rgb(255,255,255);stroke:none" />
<polygon points="1100,435 1107,448 1100,461 1093,448" style="fill:none;stroke:rgb(64,64,64);stroke-linecap:square" />
<polyline points="658,470 650,450 642,470" style="fill:none;stroke:rgb(64,64,64);stroke-linecap:square" />
<line x1="1130" y1="435" x2="1130" y2="490" style="fill:none;stroke:rgb(64,64,64);stroke-linecap:square" />
<line x1="1130" y1="490" x2="620" y2="490" style="fill:none;stroke:rgb(64,64,64);stroke-linecap:square" />
<line x1="620" y1="490" x2="620" y2="450" style="fill:none;stroke:rgb(64,64,64);stroke-linecap:square" />
<polygon points="1130,435 1137,448 1130,461 1123,448" style="fill:rgb(255,255,255);stroke:none" />
<polygon points="1130,435 1137,448 1130,461 1123,448" style="fill:none;stroke:rgb(64,64,64);stroke-linecap:square" />
<polyline points="628,470 620,450 612,470" style="fill:none;stroke:rgb(64,64,64);stroke-linecap:square" />
<line x1="980" y1="380" x2="980" y2="190" style="fill:none;stroke:rgb(64,64,64);stroke-linecap:square" />
<line x1="980" y1="190" x2="930" y2="190" style="fill:none;stroke:rgb(64,64,64);stroke-linecap:square" />
<polygon points="980,380 973,367 980,354 987,367" style="fill:rgb(255,255,255);stroke:none" />
<polygon points="980,380 973,367 980,354 987,367" style="fill:none;stroke:rgb(64,64,64);stroke-linecap:square" />
<polyline points="950,182 930,190 950,198" style="fill:none;stroke:rgb(64,64,64);stroke-linecap:square" />
<line x1="950" y1="380" x2="950" y2="310" style="fill:none;stroke:rgb(64,64,64);stroke-linecap:square" />
<line x1="950" y1="310" x2="780" y2="310" style="fill:none;stroke:rgb(64,64,64);stroke-linecap:square" />
<polygon points="950,380 943,367 950,354 957,367" style="fill:rgb(255,255,255);stroke:none" />
<polygon points="950,380 943,367 950,354 957,367" style="fill:none;stroke:rgb(64,64,64);stroke-linecap:square" />
<polyline points="800,302 780,310 800,318" style="fill:none;stroke:rgb(64,64,64);stroke-linecap:square" />
<line x1="710" y1="100" x2="570" y2="100" style="fill:none;stroke:rgb(64,64,64);stroke-linecap:square" />
<line x1="570" y1="100" x2="570" y2="150" style="fill:none;stroke:rgb(64,64,64);stroke-linecap:square" />
<polygon points="710,100 697,107 684,100 697,93" style="fill:rgb(255,255,255);stroke:none" />
<polygon points="710,100 697,107 684,100 697,93" style="fill:none;stroke:rgb(64,64,64);stroke-linecap:square" />
<polyline points="562,130 570,150 578,130" style="fill:none;stroke:rgb(64,64,64);stroke-linecap:square" />
<line x1="760" y1="90" x2="900" y2="90" style="fill:none;stroke:rgb(64,64,64);stroke-linecap:square" />
<polygon points="760,90 773,83 786,90 773,97" style="fill:rgb(255,255,255);stroke:none" />
<polygon points="760,90 773,83 786,90 773,97" style="fill:none;stroke:rgb(64,64,64);stroke-linecap:square" />
<polyline points="880,98 900,90 880,82" style="fill:none;stroke:rgb(64,64,64);stroke-linecap:square" />
<line x1="320" y1="150" x2="510" y2="150" style="fill:none;stroke:rgb(64,64,64);stroke-linecap:square" />
<polygon points="320,150 333,143 346,150 333,157" style="fill:rgb(255,255,255);stroke:none" />
<polygon points="320,150 333,143 346,150 333,157" style="fill:none;stroke:rgb(64,64,64);stroke-linecap:square" />
<polyline points="490,158 510,150 490,142" style="fill:none;stroke:rgb(64,64,64);stroke-linecap:square" />
<line x1="320" y1="170" x2="510" y2="170" style="fill:none;stroke:rgb(64,64,64);stroke-linecap:square" />
<polygon points="320,170 333,163 346,170 333,177" style="fill:rgb(255,255,255);stroke:none" />
<polygon points="320,170 333,163 346,170 333,177" style="fill:none;stroke:rgb(64,64,64);stroke-linecap:square" />
<polyline points="490,178 510,170 490,162" style="fill:none;stroke:rgb(64,64,64);stroke-linecap:square" />
<line x1="430" y1="430" x2="510" y2="430" style="fill:none;stroke:rgb(64,64,64);stroke-linecap:square" />
<polygon points="430,430 443,423 456,430 443,437" style="fill:rgb(0,0,0);stroke:none" />
<polygon points="430,430 443,423 456,430 443,437" style="fill:none;stroke:rgb(64,64,64);stroke-linecap:square" />
<polyline points="490,438 510,430 490,422" style="fill:none;stroke:rgb(64,64,64);stroke-linecap:square" />
<line x1="120" y1="380" x2="120" y2="295" style="fill:none;stroke:rgb(64,64,64);stroke-linecap:square" />
<polygon points="120,295 128,315 112,315" style="fill:rgb(255,255,255);stroke:none" />
<polygon points="120,295 128,315 112,315" style="fill:none;stroke:rgb(64,64,64);stroke-linecap:square" />
<line x1="710" y1="280" x2="710" y2="240" style="fill:none;stroke:rgb(64,64,64);stroke-linecap:square" />
<line x1="710" y1="240" x2="580" y2="240" style="fill:none;stroke:rgb(64,64,64);stroke-linecap:square" />
<line x1="580" y1="240" x2="580" y2="220" style="fill:none;stroke:rgb(64,64,64);stroke-linecap:square" />
<polygon points="580,220 588,240 572,240" style="fill:rgb(255,255,255);stroke:none" />
<polygon points="580,220 588,240 572,240" style="fill:none;stroke:rgb(64,64,64);stroke-linecap:square" />
<line x1="1160" y1="380" x2="1160" y2="330" style="fill:none;stroke:rgb(64,64,64);stroke-linecap:square" />
<line x1="1160" y1="330" x2="1110" y2="330" style="fill:none;stroke:rgb(64,64,64);stroke-linecap:square" />
<line x1="1110" y1="330" x2="1110" y2="255" style="fill:none;stroke:rgb(64,64,64);stroke-linecap:square" />
<polygon points="1110,255 1118,275 1102,275" style="fill:rgb(255,255,255);stroke:none" />
<polygon points="1110,255 1118,275 1102,275" style="fill:none;stroke:rgb(64,64,64);stroke-linecap:square" />
<line x1="1000" y1="380" x2="1000" y2="330" style="fill:none;stroke:rgb(64,64,64);stroke-linecap:square" />
<line x1="1000" y1="330" x2="1110" y2="330" style="fill:none;stroke:rgb(64,64,64);stroke-linecap:square" />
<line x1="1110" y1="330" x2="1110" y2="255" style="fill:none;stroke:rgb(64,64,64);stroke-linecap:square" />
<polygon points="1110,255 1118,275 1102,275" style="fill:rgb(255,255,255);stroke:none" />
<polygon points="1110,255 1118,275 1102,275" style="fill:none;stroke:rgb(64,64,64);stroke-linecap:square" />
<line x1="580" y1="270" x2="580" y2="220" style="fill:none;stroke:rgb(64,64,64);stroke-linecap:square" />
<polygon points="580,220 588,240 572,240" style="fill:rgb(255,255,255);stroke:none" />
<polygon points="580,220 588,240 572,240" style="fill:none;stroke:rgb(64,64,64);stroke-linecap:square" />
<line x1="580" y1="380" x2="580" y2="325" style="fill:none;stroke:rgb(64,64,64);stroke-linecap:square" />
<polygon points="580,325 588,345 572,345" style="fill:rgb(255,255,255);stroke:none" />
<polygon points="580,325 588,345 572,345" style="fill:none;stroke:rgb(64,64,64);stroke-linecap:square" />
<line x1="730" y1="280" x2="730" y2="260" style="fill:none;stroke:rgb(64,64,64);stroke-dasharray:7;stroke-dashoffset:0" />
<line x1="730" y1="260" x2="880" y2="260" style="fill:none;stroke:rgb(64,64,64);stroke-dasharray:7;stroke-dashoffset:0" />
<line x1="880" y1="260" x2="880" y2="219" style="fill:none;stroke:rgb(64,64,64);stroke-dasharray:7;stroke-dashoffset:0" />
<polygon points="880,219 888,239 872,239" style="fill:rgb(255,255,255);stroke:none" />
<polygon points="880,219 888,239 872,239" style="fill:none;stroke:rgb(64,64,64);stroke-linecap:square" />
<line x1="650" y1="380" x2="650" y2="260" style="fill:none;stroke:rgb(64,64,64);stroke-dasharray:7;stroke-dashoffset:0" />
<line x1="650" y1="260" x2="880" y2="260" style="fill:none;stroke:rgb(64,64,64);stroke-dasharray:7;stroke-dashoffset:0" />
<line x1="880" y1="260" x2="880" y2="219" style="fill:none;stroke:rgb(64,64,64);stroke-dasharray:7;stroke-dashoffset:0" />
<polygon points="880,219 888,239 872,239" style="fill:rgb(255,255,255);stroke:none" />
<polygon points="880,219 888,239 872,239" style="fill:none;stroke:rgb(64,64,64);stroke-linecap:square" />
<rect x="900" y="60" width="130" height="70" style="fill:rgb(255,204,102);stroke:none" />
<rect x="900" y="60" width="130" height="70" style="fill:none;stroke:rgb(65,65,65);stroke-width:1.2;stroke-linecap:square" />
<text x="927" y="79" style="font:11px Ubuntu">&lt;&lt; interface &gt;&gt;</text>
<text x="932" y="96" style="font:12px Ubuntu">InnerEntity</text>
<line x1="900" y1="109" x2="1030" y2="109" style="fill:none;stroke:rgb(65,65,65);stroke-width:1.2;stroke-linecap:square" />
<line x1="900" y1="119" x2="1030" y2="119" style="fill:none;stroke:rgb(65,65,65);stroke-width:1.2;stroke-linecap:square" />
<rect x="710" y="70" width="50" height="55" style="fill:rgb(0,204,255);stroke:none" />
<rect x="710" y="70" width="50" height="55" style="fill:none;stroke:rgb(65,65,65);stroke-width:1.2;stroke-linecap:square" />
<text x="720" y="92" style="font:12px Ubuntu">Inner</text>
<line x1="710" y1="105" x2="760" y2="105" style="fill:none;stroke:rgb(65,65,65);stroke-width:1.2;stroke-linecap:square" />
<line x1="710" y1="115" x2="760" y2="115" style="fill:none;stroke:rgb(65,65,65);stroke-width:1.2;stroke-linecap:square" />
<rect x="270" y="240" width="80" height="55" style="fill:rgb(0,204,255);stroke:none" />
<rect x="270" y="240" width="80" height="55" style="fill:none;stroke:rgb(65,65,65);stroke-width:1.2;stroke-linecap:square" />
<text x="297" y="262" style="font:12px Ubuntu">Role</text>
<line x1="270" y1="275" x2="350" y2="275" style="fill:none;stroke:rgb(65,65,65);stroke-width:1.2;stroke-linecap:square" />
<line x1="270" y1="285" x2="350" y2="285" style="fill:none;stroke:rgb(65,65,65);stroke-width:1.2;stroke-linecap:square" />
<rect x="290" y="390" width="140" height="69" style="fill:rgb(255,247,225);stroke:none" />
<rect x="290" y="390" width="140" height="69" style="fill:none;stroke:rgb(65,65,65);stroke-width:1.2;stroke-linecap:square" />
<text x="312" y="412" style="font:12px Ubuntu">AssociationClass</text>
<line x1="290" y1="425" x2="430" y2="425" style="fill:none;stroke:rgb(65,65,65);stroke-width:1.2;stroke-linecap:square" />
<text x="298" y="440" style="font:12px Ubuntu">- id : String</text>
<line x1="290" y1="449" x2="430" y2="449" style="fill:none;stroke:rgb(65,65,65);stroke-width:1.2;stroke-linecap:square" />
<rect x="680" y="280" width="100" height="55" style="fill:rgb(255,204,102);stroke:none" />
<rect x="680" y="280" width="100" height="55" style="fill:none;stroke:rgb(65,65,65);stroke-width:1.2;stroke-linecap:square" />
<text x="703" y="302" style="font:12px Ubuntu">Interface</text>
<line x1="680" y1="315" x2="780" y2="315" style="fill:none;stroke:rgb(65,65,65);stroke-width:1.2;stroke-linecap:square" />
<line x1="680" y1="325" x2="780" y2="325" style="fill:none;stroke:rgb(65,65,65);stroke-width:1.2;stroke-linecap:square" />
<rect x="510" y="380" width="140" height="69" style="fill:rgb(255,204,102);stroke:none" />
<rect x="510" y="380" width="140" height="69" style="fill:none;stroke:rgb(65,65,65);stroke-width:1.2;stroke-linecap:square" />
<text x="565" y="402" style="font:12px Ubuntu">Class</text>
<line x1="510" y1="415" x2="650" y2="415" style="fill:none;stroke:rgb(65,65,65);stroke-width:1.2;stroke-linecap:square" />
<text x="518" y="430" style="font:12px Ubuntu">- isAbstract : Boolean</text>
<line x1="510" y1="439" x2="650" y2="439" style="fill:none;stroke:rgb(65,65,65);stroke-width:1.2;stroke-linecap:square" />
<rect x="510" y="270" width="130" height="55" style="fill:rgb(255,204,102);stroke:none" />
<rect x="510" y="270" width="130" height="55" style="fill:none;stroke:rgb(65,65,65);stroke-width:1.2;stroke-linecap:square" />
<text x="517" y="292" style="font:12px Ubuntu">ConstructableEn...</text>
<line x1="510" y1="305" x2="640" y2="305" style="fill:none;stroke:rgb(65,65,65);stroke-width:1.2;stroke-linecap:square" />
<line x1="510" y1="315" x2="640" y2="315" style="fill:none;stroke:rgb(65,65,65);stroke-width:1.2;stroke-linecap:square" />
<rect x="70" y="240" width="100" height="55" style="fill:rgb(0,204,255);stroke:none" />
<rect x="70" y="240" width="100" height="55" style="fill:none;stroke:rgb(65,65,65);stroke-width:1.2;stroke-linecap:square" />
<text x="86" y="262" style="font:12px Ubuntu">Association</text>
<line x1="70" y1="275" x2="170" y2="275" style="fill:none;stroke:rgb(65,65,65);stroke-width:1.2;stroke-linecap:square" />
<line x1="70" y1="285" x2="170" y2="285" style="fill:none;stroke:rgb(65,65,65);stroke-width:1.2;stroke-linecap:square" />
<rect x="190" y="150" width="130" height="55" style="fill:rgb(0,204,255);stroke:none" />
<rect x="190" y="150" width="130" height="55" style="fill:none;stroke:rgb(65,65,65);stroke-width:1.2;stroke-linecap:square" />
<text x="219" y="172" style="font:12px Ubuntu">Dependency</text>
<line x1="190" y1="185" x2="320" y2="185" style="fill:none;stroke:rgb(65,65,65);stroke-width:1.2;stroke-linecap:square" />
<line x1="190" y1="195" x2="320" y2="195" style="fill:none;stroke:rgb(65,65,65);stroke-width:1.2;stroke-linecap:square" />
<rect x="50" y="380" width="140" height="69" style="fill:rgb(0,204,255);stroke:none" />
<rect x="50" y="380" width="140" height="69" style="fill:none;stroke:rgb(65,65,65);stroke-width:1.2;stroke-linecap:square" />
<text x="68" y="402" style="font:12px Ubuntu">BinaryAssociation</text>
<line x1="50" y1="415" x2="190" y2="415" style="fill:none;stroke:rgb(65,65,65);stroke-width:1.2;stroke-linecap:square" />
<text x="58" y="430" style="font:12px Ubuntu">- isDirected : Boolean</text>
<line x1="50" y1="439" x2="190" y2="439" style="fill:none;stroke:rgb(65,65,65);stroke-width:1.2;stroke-linecap:square" />
<rect x="510" y="150" width="130" height="69" style="fill:rgb(255,204,102);stroke:none" />
<rect x="510" y="150" width="130" height="69" style="fill:none;stroke:rgb(65,65,65);stroke-width:1.2;stroke-linecap:square" />
<text x="557" y="172" style="font:12px Ubuntu">Entity</text>
<line x1="510" y1="185" x2="640" y2="185" style="fill:none;stroke:rgb(65,65,65);stroke-width:1.2;stroke-linecap:square" />
<text x="518" y="200" style="font:12px Ubuntu">- id : String</text>
<line x1="510" y1="209" x2="640" y2="209" style="fill:none;stroke:rgb(65,65,65);stroke-width:1.2;stroke-linecap:square" />
<rect x="1040" y="200" width="130" height="55" style="fill:rgb(0,204,255);stroke:none" />
<rect x="1040" y="200" width="130" height="55" style="fill:none;stroke:rgb(65,65,65);stroke-width:1.2;stroke-linecap:square" />
<text x="1054" y="222" style="font:12px Ubuntu">ClassRelationship</text>
<line x1="1040" y1="235" x2="1170" y2="235" style="fill:none;stroke:rgb(65,65,65);stroke-width:1.2;stroke-linecap:square" />
<line x1="1040" y1="245" x2="1170" y2="245" style="fill:none;stroke:rgb(65,65,65);stroke-width:1.2;stroke-linecap:square" />
<rect x="1100" y="380" width="120" height="55" style="fill:rgb(0,204,255);stroke:none" />
<rect x="1100" y="380" width="120" height="55" style="fill:none;stroke:rgb(65,65,65);stroke-width:1.2;stroke-linecap:square" />
<text x="1117" y="402" style="font:12px Ubuntu">Generalization</text>
<line x1="1100" y1="415" x2="1220" y2="415" style="fill:none;stroke:rgb(65,65,65);stroke-width:1.2;stroke-linecap:square" />
<line x1="1100" y1="425" x2="1220" y2="425" style="fill:none;stroke:rgb(65,65,65);stroke-width:1.2;stroke-linecap:square" />
<rect x="950" y="380" width="100" height="55" style="fill:rgb(0,204,255);stroke:none" />
<rect x="950" y="380" width="100" height="55" style="fill:none;stroke:rgb(65,65,65);stroke-width:1.2;stroke-linecap:square" />
<text x="967" y="402" style="font:12px Ubuntu">Realization</text>
<line x1="950" y1="415" x2="1050" y2="415" style="fill:none;stroke:rgb(65,65,65);stroke-width:1.2;stroke-linecap:square" />
<line x1="950" y1="425" x2="1050" y2="425" style="fill:none;stroke:rgb(65,65,65);stroke-width:1.2;stroke-linecap:square" />
<rect x="820" y="150" width="110" height="69" style="fill:rgb(255,204,102);stroke:none" />
<rect x="820" y="150" width="110" height="69" style="fill:none;stroke:rgb(65,65,65);stroke-width:1.2;stroke-linecap:square" />
<text x="837" y="169" style="font:11px Ubuntu">&lt;&lt; interface &gt;&gt;</text>
<text x="837" y="186" style="font:12px Ubuntu">Implementor</text>
<line x1="820" y1="199" x2="930" y2="199" style="fill:none;stroke:rgb(65,65,65);stroke-width:1.2;stroke-linecap:square" />
<line x1="820" y1="209" x2="930" y2="209" style="fill:none;stroke:rgb(65,65,65);stroke-width:1.2;stroke-linecap:square" />
<text x="277" y="412" style="font:14px Ubuntu">1</text>
<text x="195" y="412" style="font:14px Ubuntu">1</text>
<text x="195" y="438" style="font:14px Ubuntu">-association</text>
<text x="358" y="218" style="font:14px Ubuntu">*</text>
<text x="481" y="209" style="font:14px Ubuntu">1</text>
<text x="428" y="208" style="font:14px Ubuntu">-entity</text>
<text x="189" y="258" style="font:14px Ubuntu">1</text>
<text x="257" y="262" style="font:14px Ubuntu">1</text>
<text x="221" y="288" style="font:14px Ubuntu">-target</text>
<text x="163" y="361" style="font:14px Ubuntu">1</text>
<text x="279" y="316" style="font:14px Ubuntu">1</text>
<text x="305" y="313" style="font:14px Ubuntu">-source</text>
<text x="1112" y="455" style="font:14px Ubuntu">1</text>
<text x="661" y="461" style="font:14px Ubuntu">1</text>
<text x="675" y="476" style="font:14px Ubuntu">-child</text>
<text x="1144" y="455" style="font:14px Ubuntu">*</text>
<text x="601" y="465" style="font:14px Ubuntu">1</text>
<text x="564" y="484" style="font:14px Ubuntu">-parent</text>
<text x="967" y="372" style="font:14px Ubuntu">1</text>
<text x="956" y="207" style="font:14px Ubuntu">1</text>
<text x="947" y="184" style="font:14px Ubuntu">-implementor</text>
<text x="921" y="346" style="font:14px Ubuntu">*</text>
<text x="785" y="302" style="font:14px Ubuntu">1</text>
<text x="785" y="328" style="font:14px Ubuntu">-interface</text>
<text x="697" y="92" style="font:14px Ubuntu">1</text>
<text x="552" y="133" style="font:14px Ubuntu">1</text>
<text x="585" y="140" style="font:14px Ubuntu">-outer</text>
<text x="765" y="82" style="font:14px Ubuntu">1</text>
<text x="887" y="82" style="font:14px Ubuntu">1</text>
<text x="858" y="108" style="font:14px Ubuntu">-inner</text>
<text x="344" y="142" style="font:14px Ubuntu">1</text>
<text x="497" y="142" style="font:14px Ubuntu">1</text>
<text x="445" y="143" style="font:14px Ubuntu">-from</text>
<text x="346" y="166" style="font:14px Ubuntu">1</text>
<text x="497" y="162" style="font:14px Ubuntu">1</text>
<text x="455" y="165" style="font:14px Ubuntu">-to</text>
<text x="435" y="422" style="font:14px Ubuntu">1</text>
<text x="497" y="422" style="font:14px Ubuntu">1</text>
<text x="471" y="447" style="font:14px Ubuntu">-class</text>
<path d="M30,21 L30,51 L194,51 Q224,51 224,21 L30,21" style="fill:rgb(255,247,225);stroke:none" />
<path d="M30,21 L30,51 L194,51 Q224,51 224,21 L30,21" style="fill:none;stroke:rgb(65,65,65);stroke-width:1.2;stroke-linecap:square" />
<text x="35" y="43" style="font:16px Ubuntu">Relation Links - Entities</text>
<rect x="30" y="21" width="1209" height="499" style="fill:none;stroke:rgb(64,64,64);stroke-linecap:square" />
</svg>
